<?xml version="1.0" standalone="no"?>
<!DOCTYPE svg PUBLIC "-//W3C//DTD SVG 20010904//EN"
 "http://www.w3.org/TR/2001/REC-SVG-20010904/DTD/svg10.dtd">
<svg version="1.0" xmlns="http://www.w3.org/2000/svg"
 width="168.000000pt" height="168.000000pt" viewBox="0 0 168.000000 168.000000"
 preserveAspectRatio="xMidYMid meet">
<metadata>
Created by potrace 1.11, written by Peter Selinger 2001-2013
</metadata>
<g transform="translate(0.000000,168.000000) scale(0.100000,-0.100000)"
fill="#000000" stroke="none">
<path d="M558 1637 c-28 -22 -36 -43 -241 -627 -36 -102 -95 -269 -131 -373
-36 -103 -66 -199 -66 -214 0 -36 35 -105 61 -122 21 -12 144 -58 414 -151
434 -151 418 -146 464 -140 64 10 99 53 139 170 18 52 44 124 57 160 13 36 69
196 125 355 56 160 120 342 142 404 43 123 46 168 14 216 -29 44 -47 52 -446
190 -69 23 -195 68 -282 99 -173 62 -210 67 -250 33z m139 -41 c37 -13 167
-59 288 -101 546 -192 509 -175 524 -230 10 -39 10 -38 -122 -415 -30 -85
-101 -288 -158 -450 -106 -302 -121 -333 -175 -346 -29 -7 -44 -3 -339 101
-88 31 -216 76 -285 100 -244 85 -243 84 -259 143 -9 30 -3 55 49 201 32 91
102 290 155 441 53 151 118 337 145 413 45 129 67 166 97 167 6 0 42 -11 80
-24z"/>
<path d="M700 1453 c0 -5 -23 -32 -50 -61 -46 -49 -60 -72 -43 -72 3 0 15 8
25 17 17 15 21 15 53 0 19 -9 35 -20 34 -24 -3 -19 2 -33 12 -33 8 0 9 25 5
83 -3 45 -6 85 -6 90 0 4 -7 7 -15 7 -8 0 -15 -3 -15 -7z m8 -82 c-3 -18 -5
-18 -22 -5 -19 13 -19 14 0 35 16 18 20 19 22 5 2 -9 2 -25 0 -35z"/>
<path d="M673 1267 c-4 -8 -25 -20 -46 -27 -21 -6 -36 -14 -34 -16 2 -3 23 2
46 9 42 15 51 11 29 -12 -11 -11 -10 -12 2 -6 13 8 13 7 1 -8 -7 -9 -10 -17
-5 -17 5 0 2 -5 -6 -10 -8 -5 -10 -10 -4 -10 18 0 31 22 37 62 6 39 -6 59 -20
35z"/>
<path d="M983 1058 c-47 -71 -100 -103 -205 -127 -153 -35 -239 -85 -278 -161
l-19 -38 52 52 c57 58 121 85 247 106 83 14 160 51 199 96 37 42 40 25 9 -49
-28 -67 -87 -153 -115 -168 -13 -7 -21 -14 -19 -17 8 -7 69 34 99 68 49 52 63
35 23 -28 -25 -38 -63 -77 -106 -105 -32 -22 -4 -23 45 -3 19 8 35 12 35 8 0
-22 -61 -75 -104 -91 -49 -18 -49 -19 -20 -25 76 -16 154 42 156 117 1 18 12
48 24 67 35 53 41 94 16 116 -20 17 -20 17 -1 54 11 21 23 54 26 74 6 35 -12
96 -28 96 -4 0 -20 -19 -36 -42z"/>
<path d="M1043 442 c-12 -7 -34 -87 -27 -95 6 -6 102 42 110 54 3 6 -4 4 -17
-4 -13 -8 -37 -18 -52 -21 -25 -6 -27 -4 -19 11 5 10 7 24 4 32 -2 8 0 11 5 8
5 -3 10 0 10 8 0 8 -1 15 -1 15 -1 0 -6 -4 -13 -8z"/>
<path d="M975 268 c2 -40 4 -83 4 -95 1 -13 5 -23 10 -23 14 0 123 129 119
141 -3 8 -10 6 -20 -5 -9 -9 -25 -16 -35 -16 -22 0 -57 23 -59 39 -1 6 -2 16
-3 21 0 6 -5 10 -11 10 -5 0 -8 -30 -5 -72z m53 -16 c15 -10 7 -38 -14 -46
-10 -4 -14 3 -14 24 0 31 6 35 28 22z"/>
</g>
</svg>
